<svg xmlns="http://www.w3.org/2000/svg" version="1.1" xmlns:xlink="http://www.w3.org/1999/xlink" xmlns:svgjs="http://svgjs.com/svgjs" width="1200" height="768" preserveAspectRatio="none" viewBox="0 0 1200 768"><g mask="url(&quot;#SvgjsMask3585&quot;)" fill="none"><rect width="1200" height="768" x="0" y="0" fill="url(#SvgjsLinearGradient3586)"></rect><g transform="translate(0, -46.08)" stroke-linecap="round" stroke="url(#SvgjsLinearGradient3587)"><path d="M210 156.98 L210 306.98" stroke-width="7.5"></path><path d="M210 318.23 L210 565.73" stroke-width="7.5"></path><path d="M210 576.98 L210 611.02" stroke-width="7.5"></path><path d="M220 216.71 L220 551.29" stroke-width="7.5"></path><path d="M230 263.31 L230 450.81" stroke-width="7.5"></path><path d="M230 462.06 L230 484.56" stroke-width="7.5"></path><path d="M230 495.81 L230 504.69" stroke-width="7.5"></path><path d="M240 298.86 L240 396.36" stroke-width="7.5"></path><path d="M240 407.61 L240 445.11" stroke-width="7.5"></path><path d="M240 456.36 L240 469.14" stroke-width="7.5"></path><path d="M250 200.81 L250 567.18" stroke-width="7.5"></path><path d="M260 267.5 L260 282.5" stroke-width="7.5"></path><path d="M260 293.75 L260 421.25" stroke-width="7.5"></path><path d="M260 432.5 L260 500.5" stroke-width="7.5"></path><path d="M270 152.41 L270 519.91" stroke-width="7.5"></path><path d="M270 531.16 L270 583.66" stroke-width="7.5"></path><path d="M270 594.91 L270 615.59" stroke-width="7.5"></path><path d="M280 160.53 L280 183.03" stroke-width="7.5"></path><path d="M280 194.28 L280 607.48" stroke-width="7.5"></path><path d="M290 221.49 L290 431.49" stroke-width="7.5"></path><path d="M290 442.74 L290 525.24" stroke-width="7.5"></path><path d="M290 536.49 L290 546.51" stroke-width="7.5"></path><path d="M300 184.57 L300 583.42" stroke-width="7.5"></path><path d="M310 261.68 L310 434.18" stroke-width="7.5"></path><path d="M310 445.43 L310 475.43" stroke-width="7.5"></path><path d="M310 486.68 L310 506.32" stroke-width="7.5"></path><path d="M320 154.41 L320 244.41" stroke-width="7.5"></path><path d="M320 255.66 L320 330.65999999999997" stroke-width="7.5"></path><path d="M320 341.90999999999997 L320 613.59" stroke-width="7.5"></path><path d="M330 141.34 L330 418.84000000000003" stroke-width="7.5"></path><path d="M330 430.09000000000003 L330 626.66" stroke-width="7.5"></path><path d="M340 354.73 L340 377.23" stroke-width="7.5"></path><path d="M340 388.48 L340 413.27" stroke-width="7.5"></path><path d="M350 213.45 L350 333.45" stroke-width="7.5"></path><path d="M350 344.7 L350 472.2" stroke-width="7.5"></path><path d="M350 483.45 L350 554.55" stroke-width="7.5"></path><path d="M360 299.28 L360 426.78" stroke-width="7.5"></path><path d="M360 438.03 L360 468.72" stroke-width="7.5"></path><path d="M370 271.4 L370 353.9" stroke-width="7.5"></path><path d="M370 365.15 L370 425.15" stroke-width="7.5"></path><path d="M370 436.4 L370 496.6" stroke-width="7.5"></path><path d="M380 271.56 L380 339.06" stroke-width="7.5"></path><path d="M380 350.31 L380 410.31" stroke-width="7.5"></path><path d="M380 421.56 L380 496.44" stroke-width="7.5"></path><path d="M390 262.75 L390 397.75" stroke-width="7.5"></path><path d="M390 409 L390 461.5" stroke-width="7.5"></path><path d="M390 472.75 L390 505.25" stroke-width="7.5"></path><path d="M400 336.1 L400 351.1" stroke-width="7.5"></path><path d="M400 362.35 L400 384.85" stroke-width="7.5"></path><path d="M400 396.1 L400 431.9" stroke-width="7.5"></path><path d="M410 300.03 L410 412.53" stroke-width="7.5"></path><path d="M410 423.78 L410 431.28" stroke-width="7.5"></path><path d="M410 442.53 L410 467.97" stroke-width="7.5"></path><path d="M420 204.4 L420 309.4" stroke-width="7.5"></path><path d="M420 320.65 L420 470.65" stroke-width="7.5"></path><path d="M420 481.9 L420 563.6" stroke-width="7.5"></path><path d="M430 224.95 L430 269.95" stroke-width="7.5"></path><path d="M430 281.2 L430 408.7" stroke-width="7.5"></path><path d="M430 419.95 L430 543.05" stroke-width="7.5"></path><path d="M440 256.52 L440 354.02" stroke-width="7.5"></path><path d="M440 365.27 L440 470.27" stroke-width="7.5"></path><path d="M440 481.52 L440 511.48" stroke-width="7.5"></path><path d="M450 303.5 L450 401" stroke-width="7.5"></path><path d="M450 412.25 L450 419.75" stroke-width="7.5"></path><path d="M450 431 L450 464.5" stroke-width="7.5"></path><path d="M460 145.38 L460 622.62" stroke-width="7.5"></path><path d="M470 148.51 L470 366.01" stroke-width="7.5"></path><path d="M470 377.26 L470 414.76" stroke-width="7.5"></path><path d="M470 426.01 L470 619.49" stroke-width="7.5"></path><path d="M480 347.45 L480 362.45" stroke-width="7.5"></path><path d="M480 373.7 L480 420.55" stroke-width="7.5"></path><path d="M490 178.2 L490 380.7" stroke-width="7.5"></path><path d="M490 391.95 L490 589.8" stroke-width="7.5"></path><path d="M500 262.08 L500 505.92" stroke-width="7.5"></path><path d="M510 180.2 L510 262.7" stroke-width="7.5"></path><path d="M510 273.95 L510 587.8" stroke-width="7.5"></path><path d="M520 288.58 L520 438.58" stroke-width="7.5"></path><path d="M520 449.83 L520 479.42" stroke-width="7.5"></path><path d="M530 317.5 L530 400" stroke-width="7.5"></path><path d="M530 411.25 L530 418.75" stroke-width="7.5"></path><path d="M530 430 L530 450.5" stroke-width="7.5"></path><path d="M540 150.03 L540 562.53" stroke-width="7.5"></path><path d="M540 573.78 L540 617.97" stroke-width="7.5"></path><path d="M550 352.15 L550 415.85" stroke-width="7.5"></path><path d="M560 163.44 L560 508.44" stroke-width="7.5"></path><path d="M560 519.69 L560 549.69" stroke-width="7.5"></path><path d="M560 560.94 L560 604.56" stroke-width="7.5"></path><path d="M570 173.99 L570 413.99" stroke-width="7.5"></path><path d="M570 425.24 L570 440.24" stroke-width="7.5"></path><path d="M570 451.49 L570 594.01" stroke-width="7.5"></path><path d="M580 162.41 L580 605.6" stroke-width="7.5"></path><path d="M590 316.99 L590 391.99" stroke-width="7.5"></path><path d="M590 403.24 L590 418.24" stroke-width="7.5"></path><path d="M590 429.49 L590 451.01" stroke-width="7.5"></path><path d="M600 240.71 L600 527.29" stroke-width="7.5"></path><path d="M610 156.63 L610 216.63" stroke-width="7.5"></path><path d="M610 227.88 L610 385.38" stroke-width="7.5"></path><path d="M610 396.63 L610 611.38" stroke-width="7.5"></path><path d="M620 190.5 L620 505.5" stroke-width="7.5"></path><path d="M620 516.75 L620 524.25" stroke-width="7.5"></path><path d="M620 535.5 L620 577.5" stroke-width="7.5"></path><path d="M630 235.1 L630 482.6" stroke-width="7.5"></path><path d="M630 493.85 L630 508.85" stroke-width="7.5"></path><path d="M630 520.1 L630 532.9" stroke-width="7.5"></path><path d="M640 198.29 L640 520.79" stroke-width="7.5"></path><path d="M640 532.04 L640 547.04" stroke-width="7.5"></path><path d="M640 558.29 L640 569.71" stroke-width="7.5"></path><path d="M650 360.48 L650 367.98" stroke-width="7.5"></path><path d="M650 379.23 L650 386.73" stroke-width="7.5"></path><path d="M650 397.98 L650 407.52" stroke-width="7.5"></path><path d="M660 253.39 L660 433.39" stroke-width="7.5"></path><path d="M660 444.64 L660 514.61" stroke-width="7.5"></path><path d="M670 276.91 L670 351.91" stroke-width="7.5"></path><path d="M670 363.16 L670 438.16" stroke-width="7.5"></path><path d="M670 449.41 L670 491.09" stroke-width="7.5"></path><path d="M680 187.92 L680 232.92" stroke-width="7.5"></path><path d="M680 244.17 L680 580.08" stroke-width="7.5"></path><path d="M690 327.13 L690 372.13" stroke-width="7.5"></path><path d="M690 383.38 L690 440.88" stroke-width="7.5"></path><path d="M700 342.55 L700 357.55" stroke-width="7.5"></path><path d="M700 368.8 L700 406.3" stroke-width="7.5"></path><path d="M700 417.55 L700 425.45" stroke-width="7.5"></path><path d="M710 221 L710 341" stroke-width="7.5"></path><path d="M710 352.25 L710 494.75" stroke-width="7.5"></path><path d="M710 506 L710 547" stroke-width="7.5"></path><path d="M720 335.6 L720 432.4" stroke-width="7.5"></path><path d="M730 208.81 L730 298.81" stroke-width="7.5"></path><path d="M730 310.06 L730 559.19" stroke-width="7.5"></path><path d="M740 318.51 L740 348.51" stroke-width="7.5"></path><path d="M740 359.76 L740 389.76" stroke-width="7.5"></path><path d="M740 401.01 L740 449.49" stroke-width="7.5"></path><path d="M750 216.32 L750 291.32" stroke-width="7.5"></path><path d="M750 302.57 L750 355.07" stroke-width="7.5"></path><path d="M750 366.32 L750 551.68" stroke-width="7.5"></path><path d="M760 317.93 L760 332.93" stroke-width="7.5"></path><path d="M760 344.18 L760 426.68" stroke-width="7.5"></path><path d="M760 437.93 L760 450.07" stroke-width="7.5"></path><path d="M770 224.24 L770 299.24" stroke-width="7.5"></path><path d="M770 310.49 L770 543.76" stroke-width="7.5"></path><path d="M780 184.94 L780 447.44" stroke-width="7.5"></path><path d="M780 458.69 L780 518.69" stroke-width="7.5"></path><path d="M780 529.94 L780 583.07" stroke-width="7.5"></path><path d="M790 150.66 L790 617.34" stroke-width="7.5"></path><path d="M800 312.98 L800 387.98" stroke-width="7.5"></path><path d="M800 399.23 L800 455.02" stroke-width="7.5"></path><path d="M810 331.85 L810 376.85" stroke-width="7.5"></path><path d="M810 388.1 L810 410.6" stroke-width="7.5"></path><path d="M810 421.85 L810 436.15" stroke-width="7.5"></path><path d="M820 195.69 L820 390.69" stroke-width="7.5"></path><path d="M820 401.94 L820 521.94" stroke-width="7.5"></path><path d="M820 533.19 L820 572.31" stroke-width="7.5"></path><path d="M830 285.13 L830 435.13" stroke-width="7.5"></path><path d="M830 446.38 L830 482.88" stroke-width="7.5"></path><path d="M840 231.33 L840 493.83000000000004" stroke-width="7.5"></path><path d="M840 505.08000000000004 L840 512.58" stroke-width="7.5"></path><path d="M840 523.83 L840 536.67" stroke-width="7.5"></path><path d="M850 226.34 L850 286.34000000000003" stroke-width="7.5"></path><path d="M850 297.59000000000003 L850 541.66" stroke-width="7.5"></path><path d="M860 271.35 L860 496.65" stroke-width="7.5"></path><path d="M870 295.06 L870 430.06" stroke-width="7.5"></path><path d="M870 441.31 L870 472.94" stroke-width="7.5"></path><path d="M880 224.92 L880 472.41999999999996" stroke-width="7.5"></path><path d="M880 483.66999999999996 L880 543.08" stroke-width="7.5"></path><path d="M890 251.91 L890 454.40999999999997" stroke-width="7.5"></path><path d="M890 465.65999999999997 L890 473.15999999999997" stroke-width="7.5"></path><path d="M890 484.40999999999997 L890 516.09" stroke-width="7.5"></path><path d="M900 247.04 L900 397.03999999999996" stroke-width="7.5"></path><path d="M900 408.28999999999996 L900 520.96" stroke-width="7.5"></path><path d="M910 266.92 L910 386.92" stroke-width="7.5"></path><path d="M910 398.17 L910 435.67" stroke-width="7.5"></path><path d="M910 446.92 L910 501.08" stroke-width="7.5"></path><path d="M920 331.49 L920 338.99" stroke-width="7.5"></path><path d="M920 350.24 L920 365.24" stroke-width="7.5"></path><path d="M920 376.49 L920 436.51" stroke-width="7.5"></path><path d="M930 201.75 L930 374.25" stroke-width="7.5"></path><path d="M930 385.5 L930 513" stroke-width="7.5"></path><path d="M930 524.25 L930 566.25" stroke-width="7.5"></path><path d="M940 242.59 L940 280.09000000000003" stroke-width="7.5"></path><path d="M940 291.34000000000003 L940 373.84000000000003" stroke-width="7.5"></path><path d="M940 385.09000000000003 L940 525.41" stroke-width="7.5"></path><path d="M950 334.22 L950 356.72" stroke-width="7.5"></path><path d="M950 367.97 L950 433.78" stroke-width="7.5"></path><path d="M960 149.81 L960 352.31" stroke-width="7.5"></path><path d="M960 363.56 L960 618.19" stroke-width="7.5"></path><path d="M970 256.18 L970 391.18" stroke-width="7.5"></path><path d="M970 402.43 L970 424.93" stroke-width="7.5"></path><path d="M970 436.18 L970 511.83000000000004" stroke-width="7.5"></path><path d="M980 270.11 L980 405.11" stroke-width="7.5"></path><path d="M980 416.36 L980 497.89" stroke-width="7.5"></path><path d="M990 225.25 L990 480.25" stroke-width="7.5"></path><path d="M990 491.5 L990 542.75" stroke-width="7.5"></path></g></g><defs><mask id="SvgjsMask3585"><rect width="1200" height="768" fill="#ffffff"></rect></mask><linearGradient x1="91%" y1="-14.06%" x2="9%" y2="114.06%" gradientUnits="userSpaceOnUse" id="SvgjsLinearGradient3586"><stop stop-color="#0e2a47" offset="0"></stop><stop stop-color="rgba(20, 42, 71, 1)" offset="0.49"></stop><stop stop-color="rgba(20, 42, 71, 1)" offset="0.81"></stop><stop stop-color="rgba(20, 42, 71, 1)" offset="1"></stop></linearGradient><linearGradient x1="204" y1="384" x2="996" y2="384" gradientUnits="userSpaceOnUse" id="SvgjsLinearGradient3587"><stop stop-color="#3a7cc3" offset="0"></stop><stop stop-color="#dd1133" offset="1"></stop></linearGradient></defs></svg>